<?xml version="1.0" encoding="UTF-8"?>
<svg xmlns="http://www.w3.org/2000/svg" xmlns:xlink="http://www.w3.org/1999/xlink" viewBox="0 0 64 64" width="64px" height="64px">
<defs>
<linearGradient id="linear0" gradientUnits="userSpaceOnUse" x1="116.90625" y1="61.8125" x2="116.90625" y2="154.074387" gradientTransform="matrix(0.372093,0,0,0.372093,0,0)">
<stop offset="0" style="stop-color:rgb(98.823529%,95.294118%,99.215686%);stop-opacity:1;"/>
<stop offset="1" style="stop-color:rgb(43.137255%,85.490197%,98.823529%);stop-opacity:1;"/>
</linearGradient>
<linearGradient id="linear1" gradientUnits="userSpaceOnUse" x1="86" y1="17.917561" x2="86" y2="155.025757" gradientTransform="matrix(0.372093,0,0,0.372093,0,0)">
<stop offset="0" style="stop-color:rgb(87.843138%,56.470591%,94.117647%);stop-opacity:1;"/>
<stop offset="1" style="stop-color:rgb(1.960784%,74.117649%,96.078432%);stop-opacity:1;"/>
</linearGradient>
</defs>
<g id="surface56632164">
<path style=" stroke:none;fill-rule:nonzero;fill:url(#linear0);" d="M 47.476562 32 C 48.109375 31.160156 48.5 30.132812 48.5 29 C 48.5 26.238281 46.261719 24 43.5 24 C 40.738281 24 38.5 26.238281 38.5 29 C 38.5 30.132812 38.890625 31.160156 39.523438 32 L 32 32 L 32 40 C 32.828125 39.371094 33.871094 39 35 39 C 37.761719 39 40 41.238281 40 44 C 40 46.761719 37.761719 49 35 49 C 33.871094 49 32.828125 48.628906 32 48 L 32 55 L 50.46875 55 C 52.96875 55 55 52.96875 55 50.46875 L 55 32 Z M 47.476562 32 "/>
<path style=" stroke:none;fill-rule:nonzero;fill:url(#linear1);" d="M 51 8 L 13 8 C 10.242188 8 8 10.242188 8 13 L 8 51 C 8 53.757812 10.242188 56 13 56 L 51 56 C 53.757812 56 56 53.757812 56 51 L 56 13 C 56 10.242188 53.757812 8 51 8 Z M 10 13 C 10 11.347656 11.347656 10 13 10 L 31 10 L 31 14.851562 C 30.359375 14.621094 29.6875 14.5 29 14.5 C 27.195312 14.5 25.507812 15.300781 24.359375 16.695312 C 23.214844 18.089844 22.765625 19.921875 23.121094 21.71875 C 23.570312 23.984375 25.402344 25.847656 27.675781 26.351562 C 28.8125 26.605469 29.949219 26.53125 31 26.148438 L 31 31 L 22.46875 31 L 23.679688 32.601562 C 24.214844 33.3125 24.5 34.144531 24.5 35 C 24.5 36.203125 23.964844 37.328125 23.035156 38.09375 C 22.09375 38.867188 20.898438 39.160156 19.667969 38.917969 C 18.167969 38.617188 16.933594 37.402344 16.597656 35.890625 C 16.339844 34.726562 16.597656 33.558594 17.320312 32.601562 L 18.53125 31 L 10 31 Z M 31 54 L 13 54 C 11.347656 54 10 52.652344 10 51 L 10 33 L 14.851562 33 C 14.46875 34.050781 14.394531 35.1875 14.648438 36.324219 C 15.152344 38.597656 17.015625 40.429688 19.28125 40.878906 C 19.683594 40.960938 20.089844 41 20.488281 41 C 21.878906 41 23.222656 40.527344 24.304688 39.640625 C 25.699219 38.492188 26.5 36.804688 26.5 35 C 26.5 34.3125 26.382812 33.640625 26.148438 33 L 31 33 L 31 41.53125 L 32.601562 40.320312 C 33.558594 39.597656 34.726562 39.34375 35.890625 39.597656 C 37.402344 39.933594 38.617188 41.167969 38.917969 42.671875 C 39.160156 43.898438 38.867188 45.09375 38.09375 46.035156 C 36.785156 47.628906 34.308594 47.96875 32.601562 46.679688 L 31 45.46875 Z M 54 51 C 54 52.652344 52.652344 54 51 54 L 33 54 L 33 49.148438 C 33.640625 49.378906 34.3125 49.5 35 49.5 C 36.804688 49.5 38.492188 48.699219 39.640625 47.304688 C 40.785156 45.910156 41.234375 44.078125 40.878906 42.28125 C 40.429688 40.015625 38.597656 38.152344 36.324219 37.648438 C 35.1875 37.394531 34.050781 37.46875 33 37.851562 L 33 33 L 41.53125 33 L 40.320312 31.398438 C 39.597656 30.441406 39.339844 29.273438 39.597656 28.109375 C 39.933594 26.597656 41.167969 25.382812 42.671875 25.082031 C 43.898438 24.835938 45.09375 25.132812 46.035156 25.90625 C 46.964844 26.671875 47.5 27.796875 47.5 29 C 47.5 29.859375 47.214844 30.6875 46.679688 31.398438 L 45.46875 33 L 54 33 Z M 49.148438 31 C 49.378906 30.359375 49.5 29.6875 49.5 29 C 49.5 27.195312 48.699219 25.507812 47.304688 24.359375 C 45.910156 23.214844 44.082031 22.765625 42.28125 23.121094 C 40.015625 23.570312 38.152344 25.402344 37.648438 27.675781 C 37.394531 28.8125 37.46875 29.949219 37.851562 31 L 33 31 L 33 22.46875 L 31.398438 23.679688 C 30.441406 24.402344 29.273438 24.660156 28.109375 24.402344 C 26.597656 24.066406 25.382812 22.832031 25.082031 21.328125 C 24.839844 20.101562 25.132812 18.90625 25.90625 17.964844 C 27.214844 16.367188 29.6875 16.03125 31.398438 17.320312 L 33 18.53125 L 33 10 L 51 10 C 52.652344 10 54 11.347656 54 13 L 54 31 Z M 49.148438 31 "/>
</g>
</svg>
